PathFileType	4	(X/Y/Z)	D:\walkingproject\041602jb\041602jb1.trc																																																																																		
DataRate	CameraRate	NumFrames	NumMarkers	Units	OrigDataRate	OrigDataStartFrame	OrigNumFrames																																																																														
120	120	12	28	mm	120	1	240																																																																														
Frame#	Time	head vertex			right ear			left ear			r scapula			right shoulder			left shoulder			sacrum			right elbow			right wrist			left elbow			left wrist			right g. trochanter			rigth mid-thigh			right knee			right tibia			right ankle			right heel			right mth			left g. trochanter			left mid-thigh			left knee			left tibia			left ankle			left heel			left mth			slider			fixed 1			fixed 2		
		X1	Y1	Z1	X2	Y2	Z2	X3	Y3	Z3	X4	Y4	Z4	X5	Y5	Z5	X6	Y6	Z6	X7	Y7	Z7	X8	Y8	Z8	X9	Y9	Z9	X10	Y10	Z10	X11	Y11	Z11	X12	Y12	Z12	X13	Y13	Z13	X14	Y14	Z14	X15	Y15	Z15	X16	Y16	Z16	X17	Y17	Z17	X18	Y18	Z18	X19	Y19	Z19	X20	Y20	Z20	X21	Y21	Z21	X22	Y22	Z22	X23	Y23	Z23	X24	Y24	Z24	X25	Y25	Z25	X26	Y26	Z26	X27	Y27	Z27	X28	Y28	Z28
																																																																																					
1	0	343.75946	245.51552	1728.31689	397.63239	148.26811	1622.74231	395.71133	360.56482	1634.41724	234.70003	176.17412	1331.23047	380.74127	15.44493	1344.46704	378.58804	496.33334	1364.44995	287.92352	255.62311	984.74585	383.52533	-29.69583	1109.66687	617.44531	20.63552	1155.79382	412.74442	540.72461	1101.13708	616.40222	455.80914	1157.35266	426.65292	53.32952	879.8396	549.72852	129.10104	794.60583	357.35852	80.06447	479.06332	389.45969	134.43808	229.14085	343.39963	123.226	94.91283	254.59322	165.2339	38.26465	452.17593	84.10741	13.37262	445.69662	455.02063	866.07465	533.20044	399.00659	681.95795	378.92581	420.17426	483.31802	409.16846	389.89966	337.35739	336.18735	371.80756	92.32047	259.88281	324.29709	36.56703	447.83942	415.06601	3.03345	965.91101	-21.14479	9.93127	1955.65491	-11.8066	-14.00936	-4.60406	1.00681	9.24365
2	0.008	343.75946	245.51552	1728.31689	397.63239	148.26811	1622.74231	395.6972	360.99396	1634.3269	234.70003	176.17412	1331.23047	380.74127	15.44493	1344.46704	378.13538	496.56195	1364.60266	287.92352	255.62311	984.74585	384.03223	-29.93834	1109.47778	617.44531	20.63552	1155.79382	412.58533	541.74805	1101.72742	616.40222	455.80914	1157.35266	426.78345	53.92637	879.69409	549.72852	129.10104	794.60583	357.35852	80.06447	479.06332	389.45969	134.43808	229.14085	343.68195	123.14175	94.97782	254.59322	165.2339	38.26465	452.17593	84.10741	13.37262	445.69662	455.02063	866.07465	533.20044	399.00659	681.95795	378.92581	420.17426	483.31802	409.16846	389.89966	337.35739	336.18735	371.80756	92.32047	260.23984	324.35254	36.48975	447.83942	415.06601	3.03345	965.67474	-21.40953	9.74698	1956.15808	-11.79542	-13.62272	-4.2835	0.95118	8.9866
3	0.017	344.03885	245.52298	1728.36243	397.91818	148.22864	1622.92114	396.36719	361.41528	1634.28296	234.48935	177.08607	1331.15942	380.74127	15.44493	1344.46704	378.13538	496.56195	1364.60266	287.92352	255.62311	984.74585	383.52533	-29.69583	1109.66687	617.44531	20.63552	1155.79382	412.74622	541.25568	1101.35156	616.40222	455.80914	1157.35266	426.78345	53.92637	879.69409				358.17841	80.19135	479.02356	389.45969	134.43808	229.14085	343.60065	123.35305	94.29072	254.87334	165.1451	37.88887	452.17593	84.10741	13.37262	445.74048	455.62479	866.21393				378.90329	419.12793	482.28772	409.16846	389.89966	337.35739	335.53229	371.81995	92.47104	260.23984	324.35254	36.48975	447.66922	415.13538	2.67758	965.91101	-21.14479	9.93127	1955.65491	-11.8066	-14.00936	-4.2835	0.95118	8.9866
4	0.025	344.03885	245.52298	1728.36243	397.91818	148.22864	1622.92114	396.36719	361.41528	1634.28296	234.64407	178.01869	1330.73132	380.74127	15.44493	1344.46704	378.13538	496.56195	1364.60266	287.62952	255.59195	984.41797	383.52533	-29.69583	1109.66687	617.44531	20.63552	1155.79382	412.88107	541.75598	1101.43396	616.40222	455.80914	1157.35266	426.78345	53.92637	879.69409				358.17841	80.19135	479.02356	389.45969	134.43808	229.14085	343.68195	123.14175	94.97782	254.87334	165.1451	37.88887	452.17593	84.10741	13.37262	445.74048	455.62479	866.21393				379.41339	419.08832	482.39929	409.16846	389.89966	337.35739	336.18735	371.80756	92.32047	259.88281	324.29709	36.56703	447.66922	415.13538	2.67758	965.91101	-21.14479	9.93127	1955.65491	-11.8066	-14.00936	-4.2835	0.95118	8.9866
5	0.033	344.03885	245.52298	1728.36243	398.04483	148.54829	1622.88379	396.36719	361.41528	1634.28296	234.74429	177.22066	1330.68628	380.74127	15.44493	1344.46704	378.81055	496.53549	1364.75366	287.62952	255.59195	984.41797	383.52533	-29.69583	1109.66687	617.44531	20.63552	1155.79382	413.04199	541.26361	1101.05798	616.40222	455.80914	1157.35266	427.21002	55.03136	879.02777				357.58389	80.32728	478.75491	389.45969	134.43808	229.14085	343.28592	123.00456	94.61021	254.44104	165.35875	37.98455	452.17593	84.10741	13.37262	445.69662	455.02063	866.07465				379.41339	419.08832	482.39929	409.16846	389.89966	337.35739	336.18735	371.80756	92.32047	260.23984	324.35254	36.48975	448.3663	414.76212	2.92389	965.91101	-21.14479	9.93127	1955.65491	-11.8066	-14.00936	-4.2835	0.95118	8.9866
6	0.042	343.89218	245.95547	1728.40356	397.75903	148.58778	1622.70483	396.36719	361.41528	1634.28296	234.64407	178.01869	1330.73132	380.74127	15.44493	1344.46704	378.29752	497.01123	1364.8374	287.62952	255.59195	984.41797	383.52533	-29.69583	1109.66687	617.44531	20.63552	1155.79382	412.88107	541.75598	1101.43396	616.40222	455.80914	1157.35266	427.21002	55.03136	879.02777				357.43066	80.43774	478.90997	389.45969	134.43808	229.14085	343.28592	123.00456	94.61021	254.44104	165.35875	37.98455	452.17593	84.10741	13.37262	445.74048	455.62479	866.21393				379.41339	419.08832	482.39929	409.16846	389.89966	337.35739	336.18735	371.80756	92.32047	260.23984	324.35254	36.48975	447.66922	415.13538	2.67758	965.91101	-21.14479	9.93127	1956.15808	-11.79542	-13.62272	-4.2835	0.95118	8.9866
7	0.05	344.21863	245.79663	1728.41028	397.41754	148.27065	1622.90356	396.36719	361.41528	1634.28296	234.64407	178.01869	1330.73132	380.74127	15.44493	1344.46704	378.13538	496.56195	1364.60266	287.62952	255.59195	984.41797	383.52533	-29.69583	1109.66687	617.44531	20.63552	1155.79382	412.88107	541.75598	1101.43396	616.40222	455.80914	1157.35266	427.21002	55.03136	879.02777				357.09869	80.59091	478.2403	389.45969	134.43808	229.14085	343.9967	123.49023	94.6584	254.87334	165.1451	37.88887	452.17593	84.10741	13.37262	445.74048	455.62479	866.21393				379.41339	419.08832	482.39929	409.16846	389.89966	337.35739	336.18735	371.80756	92.32047	260.23984	324.35254	36.48975	447.83942	415.06601	3.03345	965.67474	-21.40953	9.74698	1955.65491	-11.8066	-14.00936	-4.60406	1.00681	9.24365
8	0.058	344.21863	245.79663	1728.41028	397.75903	148.58778	1622.70483	396.36719	361.41528	1634.28296	234.41695	177.99716	1330.5083	380.74127	15.44493	1344.46704	378.35788	496.76407	1364.90637	287.62952	255.59195	984.41797	383.52533	-29.69583	1109.66687	617.44531	20.63552	1155.79382	412.88107	541.75598	1101.43396	616.40222	455.80914	1157.35266	427.21002	55.03136	879.02777				358.17841	80.19135	479.02356	389.45969	134.43808	229.14085	343.68195	123.14175	94.97782	254.87334	165.1451	37.88887	452.17593	84.10741	13.37262	445.74048	455.62479	866.21393				379.41339	419.08832	482.39929	409.16846	389.89966	337.35739	336.18735	371.80756	92.32047	259.88281	324.29709	36.56703	447.83942	415.06601	3.03345	965.67474	-21.40953	9.74698	1955.65491	-11.8066	-14.00936	-4.2835	0.95118	8.9866
9	0.067	344.24557	245.72923	1728.19763	397.83002	148.55083	1623.04504	396.36719	361.41528	1634.28296	234.64407	178.01869	1330.73132	380.74127	15.44493	1344.46704	378.0531	497.45569	1365.00757	287.92352	255.62311	984.74585	383.52533	-29.69583	1109.66687	617.44531	20.63552	1155.79382	412.88107	541.75598	1101.43396	616.91321	456.24246	1157.8125	427.45322	55.96832	878.72021				357.58389	80.32728	478.75491	389.45969	134.43808	229.14085	343.81305	123.35787	95.28453	254.44104	165.35875	37.98455	452.17593	84.10741	13.37262	445.74048	455.62479	866.21393				379.41339	419.08832	482.39929	409.16846	389.89966	337.35739	335.53229	371.81995	92.47104	259.88281	324.29709	36.56703	447.83942	415.06601	3.03345	965.91101	-21.14479	9.93127	1955.65491	-11.8066	-14.00936	-4.2835	0.95118	8.9866
10	0.075	344.24557	245.72923	1728.19763	397.75903	148.58778	1622.70483	396.36719	361.41528	1634.28296	234.41695	177.99716	1330.5083	380.74127	15.44493	1344.46704	378.0531	497.45569	1365.00757	287.57407	255.96046	984.11462	383.52533	-29.69583	1109.66687	617.44531	20.63552	1155.79382	412.88107	541.75598	1101.43396	616.91321	456.24246	1157.8125	426.87585	54.83352	879.81104				356.7244	80.60547	478.60959	389.74646	134.73021	228.75128	343.81305	123.35787	95.28453	254.44104	165.35875	37.98455	452.17593	84.10741	13.37262	445.74048	455.62479	866.21393				379.41339	419.08832	482.39929	409.16846	389.89966	337.35739	336.18735	371.80756	92.32047	259.88281	324.29709	36.56703	447.83942	415.06601	3.03345	965.91101	-21.14479	9.93127	1955.65491	-11.8066	-14.00936	-4.2835	0.95118	8.9866
11	0.083	344.24557	245.72923	1728.19763	396.96814	148.81961	1622.59143	396.46024	361.96732	1634.35156	234.56328	178.15849	1330.20374	380.74127	15.44493	1344.46704	378.0531	497.45569	1365.00757	287.62952	255.59195	984.41797	383.52533	-29.69583	1109.66687	617.44531	20.63552	1155.79382	413.05063	542.29535	1101.70984	616.91321	456.24246	1157.8125	427.45322	55.96832	878.72021				356.7244	80.60547	478.60959	389.45969	134.43808	229.14085	343.81305	123.35787	95.28453	254.44104	165.35875	37.98455	452.17593	84.10741	13.37262	445.74048	455.62479	866.21393				379.41339	419.08832	482.39929	409.16846	389.89966	337.35739	336.18735	371.80756	92.32047	259.88281	324.29709	36.56703	447.66922	415.13538	2.67758	965.48572	-21.12002	9.70537	1955.65491	-11.8066	-14.00936	-4.2835	0.95118	8.9866
12	0.092	343.91913	245.88806	1728.1908	397.40891	148.7085	1622.70361	396.46024	361.96732	1634.35156	234.79039	178.18004	1330.42676	380.74127	15.44493	1344.46704	378.0531	497.45569	1365.00757	287.62952	255.59195	984.41797	383.52533	-29.69583	1109.66687	617.44531	20.63552	1155.79382	413.05063	542.29535	1101.70984	616.91321	456.24246	1157.8125	427.45322	55.96832	878.72021				357.43066	80.43774	478.90997	389.45969	134.43808	229.14085	343.81305	123.35787	95.28453	254.44104	165.35875	37.98455	452.17593	84.10741	13.37262	445.74048	455.62479	866.21393				379.41339	419.08832	482.39929	409.16846	389.89966	337.35739	336.18735	371.80756	92.32047	259.88281	324.29709	36.56703	447.66922	415.13538	2.67758	965.67474	-21.40953	9.74698	1956.15808	-11.79542	-13.62272	-4.2835	0.95118	8.9866
